 http://www.torrentkit.com  

who care what we share? support us by seeding back,
and don\'t forget to visit

---------------------------------------------------------------------------

Poster
 
http://leetleech.org/images/38976837281695259381.jpg


The Tourist 2010 R5 DiVERSITY


[info]
[nfo][font=Courier New]
Complete name                    : The Tourist 2010 R5 xvid DiVERSITY
Format                           : AVI
Format/Info                      : Audio Video Interleave
Format profile                   : OpenDML
File size                        : 1.60 GiB
Duration                         : 1h 39mn
Overall bit rate                 : 2 303 Kbps
Writing application              : AVI-Mux GUI 1.17.8.3, Feb 16 201019:42:50
Source                           : The Tourist 2010 R5 NTSC DVDR-TDP
Encoder                          : chris25867

[url]http://www.imdb.com/title/tt1243957/[/url]


[color=green]Video[/color]

Format                           : MPEG-4 Visual
Format profile                   : Advanced Simple@L5
Format settings, BVOP            : Yes
Format settings, QPel            : No
Format settings, GMC             : No warppoints
Format settings, Matrix          : Default (H.263)
Codec ID                         : XVID
Codec ID/Hint                    : XviD
Duration                         : 1h 39mn
Bit rate                         : 1 850 Kbps
Width                            : 720 pixels
Height                           : 288 pixels
Display aspect ratio             : 2.500
Frame rate                       : 23.976 fps
Color space                      : YUV
Chroma subsampling               : 4:2:0
Bit depth                        : 8 bits
Scan type                        : Progressive
Compression mode                 : Lossy
Bits/(Pixel*Frame)               : 0.372
Stream size                      : 1.28 GiB (80%)
Writing library                  : XviD 1.2.1 (UTC 2008-12-04)


[color=green]Audio[/color]

Format                           : AC-3
Format/Info                      : Audio Coding 3
Mode extension                   : CM (complete main)
Codec ID                         : 2000
Duration                         : 1h 39mn
Bit rate mode                    : Constant
Bit rate                         : 448 Kbps
Channel(s)                       : 6 channels
Channel positions                : Front: L C R, Side: L R, LFE
Sampling rate                    : 48.0 KHz
Bit depth                        : 16 bits
Compression mode                 : Lossy
Stream size                      : 318 MiB (19%)
Alignment                        : Aligned on interleaves
Interleave, duration             : 64 ms (1.53 video frames)
Interleave, preload duration     : 192 ms


[cast]
Johnny Depp                      : Frank Tupelo  
Angelina Jolie                   : Elise Clifton-Ward  
Paul Bettany                     : Inspector John Acheson  
Timothy Dalton                   : Chief Inspector Jones  
Steven Berkoff                   : Reginald Shaw  
Rufus Sewell                     : The Englishman  
Christian De Sica                : Colonnello Lombardi  
Alessio Boni                     : Sergente Cerato  
Daniele Pecci                    : Tenente Narduzzi  
  
 
 
  


[plot]
Revolves around Frank, an American tourist visiting Italy to mend a broken heart. 
Elise is an extraordinary woman who deliberately crosses his path. 



Enjoy

Dont forget to thank the uploader 


Greets to:

*THC* ,PrisM ,DiGiTaL iNK ,ViSiON ,LEGi0N ,FLAWL3SS ,Rx ,Hibees ,xXTHORNXx ,Noir ,IMAGiNE
PDU ,ELEKTRI4KA ,KART3LDVD ,CTFX ,202122 ,StevieL ,skrufern ,Zia ,Smelly

All the people that make p2p what it is...THANKS [/nfo][/font]

[screens]
 
http://leetleech.org/images/51599269706507510672.jpg 
http://leetleech.org/images/78524316417695125825.jpg 
http://leetleech.org/images/84360322857064316113.jpg




----------------------------------------------------------------------------
 
http://www.torrentkit.com thanks for supporting with server cast,